# xmcd
#
# Track frame offsets:
#	150
#	1722
#	32596
#	54355
#	67723
#	89746
#	124515
#	140840
#	165615
#	180254
#	203688
#	216331
#	234166
#	261020
#	277125
#	289493
#
# Disc length: 4053 seconds
#
# Revision: 1
# Processed by: cddbd v1.5.2PL0 Copyright (c) Steve Scherf et al.
# Submitted via: audiograbber 1.83.01
#
DISCID=df0fd310
DTITLE=Konrad "Bones" Windisch - Blues Hut Sessions
DYEAR=2006
DGENRE=Blues
TTITLE0=Intro
TTITLE1=Where The Blues Come From
TTITLE2=House Of The Rising Sun
TTITLE3=Baby, Please Don't Go
TTITLE4=Stack O'Lee
TTITLE5=St. James Infirmary Blues
TTITLE6=Low Down Dirty Blues
TTITLE7=This Little Light Of Mine
TTITLE8=Crazy 'Bout This Sound
TTITLE9=Lonesome Valley
TTITLE10=He Was A Friend Of Mine
TTITLE11=Roll On Mississippi (set Us Free)
TTITLE12=Last Fair Deal Goin' Down
TTITLE13=One Kind Favor
TTITLE14=Grinnin' In Your Face
TTITLE15=Deliverance
EXTD=
EXTT0=
EXTT1=
EXTT2=
EXTT3=
EXTT4=
EXTT5=
EXTT6=
EXTT7=
EXTT8=
EXTT9=
EXTT10=
EXTT11=
EXTT12=
EXTT13=
EXTT14=
EXTT15=
PLAYORDER=
